<mxfile host="app.diagrams.net" modified="2024-02-23T12:45:39.860Z" agent="Mozilla/5.0 (Windows NT 10.0; Win64; x64) AppleWebKit/537.36 (KHTML, like Gecko) Chrome/122.0.0.0 Safari/537.36" etag="DdH1dod0RVHMqPlrTtcu" version="23.1.6" type="github">
  <diagram name="Page-1" id="2YBvvXClWsGukQMizWep">
    <mxGraphModel dx="1740" dy="390" grid="1" gridSize="10" guides="1" tooltips="1" connect="1" arrows="1" fold="1" page="1" pageScale="1" pageWidth="850" pageHeight="1100" math="0" shadow="0">
      <root>
        <mxCell id="0" />
        <mxCell id="1" parent="0" />
        <mxCell id="aM9ryv3xv72pqoxQDRHE-1" value=":Object" style="shape=umlLifeline;perimeter=lifelinePerimeter;whiteSpace=wrap;html=1;container=0;dropTarget=0;collapsible=0;recursiveResize=0;outlineConnect=0;portConstraint=eastwest;newEdgeStyle={&quot;edgeStyle&quot;:&quot;elbowEdgeStyle&quot;,&quot;elbow&quot;:&quot;vertical&quot;,&quot;curved&quot;:0,&quot;rounded&quot;:0};" parent="1" vertex="1">
          <mxGeometry x="40" y="40" width="100" height="300" as="geometry" />
        </mxCell>
        <mxCell id="aM9ryv3xv72pqoxQDRHE-2" value="" style="html=1;points=[];perimeter=orthogonalPerimeter;outlineConnect=0;targetShapes=umlLifeline;portConstraint=eastwest;newEdgeStyle={&quot;edgeStyle&quot;:&quot;elbowEdgeStyle&quot;,&quot;elbow&quot;:&quot;vertical&quot;,&quot;curved&quot;:0,&quot;rounded&quot;:0};" parent="aM9ryv3xv72pqoxQDRHE-1" vertex="1">
          <mxGeometry x="45" y="70" width="10" height="190" as="geometry" />
        </mxCell>
        <mxCell id="aM9ryv3xv72pqoxQDRHE-3" value="dispatch" style="html=1;verticalAlign=bottom;startArrow=oval;endArrow=block;startSize=8;edgeStyle=elbowEdgeStyle;elbow=vertical;curved=0;rounded=0;" parent="aM9ryv3xv72pqoxQDRHE-1" target="aM9ryv3xv72pqoxQDRHE-2" edge="1">
          <mxGeometry relative="1" as="geometry">
            <mxPoint x="-15" y="70" as="sourcePoint" />
          </mxGeometry>
        </mxCell>
        <mxCell id="aM9ryv3xv72pqoxQDRHE-4" value="" style="html=1;points=[];perimeter=orthogonalPerimeter;outlineConnect=0;targetShapes=umlLifeline;portConstraint=eastwest;newEdgeStyle={&quot;edgeStyle&quot;:&quot;elbowEdgeStyle&quot;,&quot;elbow&quot;:&quot;vertical&quot;,&quot;curved&quot;:0,&quot;rounded&quot;:0};" parent="aM9ryv3xv72pqoxQDRHE-1" vertex="1">
          <mxGeometry x="50" y="120" width="10" height="80" as="geometry" />
        </mxCell>
        <mxCell id="aM9ryv3xv72pqoxQDRHE-5" value=":Object" style="shape=umlLifeline;perimeter=lifelinePerimeter;whiteSpace=wrap;html=1;container=0;dropTarget=0;collapsible=0;recursiveResize=0;outlineConnect=0;portConstraint=eastwest;newEdgeStyle={&quot;edgeStyle&quot;:&quot;elbowEdgeStyle&quot;,&quot;elbow&quot;:&quot;vertical&quot;,&quot;curved&quot;:0,&quot;rounded&quot;:0};" parent="1" vertex="1">
          <mxGeometry x="220" y="40" width="100" height="300" as="geometry" />
        </mxCell>
        <mxCell id="aM9ryv3xv72pqoxQDRHE-6" value="" style="html=1;points=[];perimeter=orthogonalPerimeter;outlineConnect=0;targetShapes=umlLifeline;portConstraint=eastwest;newEdgeStyle={&quot;edgeStyle&quot;:&quot;elbowEdgeStyle&quot;,&quot;elbow&quot;:&quot;vertical&quot;,&quot;curved&quot;:0,&quot;rounded&quot;:0};" parent="aM9ryv3xv72pqoxQDRHE-5" vertex="1">
          <mxGeometry x="45" y="80" width="10" height="170" as="geometry" />
        </mxCell>
        <mxCell id="aM9ryv3xv72pqoxQDRHE-7" value="dispatch" style="html=1;verticalAlign=bottom;endArrow=block;edgeStyle=elbowEdgeStyle;elbow=vertical;curved=0;rounded=0;" parent="1" source="aM9ryv3xv72pqoxQDRHE-2" target="aM9ryv3xv72pqoxQDRHE-6" edge="1">
          <mxGeometry relative="1" as="geometry">
            <mxPoint x="195" y="130" as="sourcePoint" />
            <Array as="points">
              <mxPoint x="180" y="120" />
            </Array>
          </mxGeometry>
        </mxCell>
        <mxCell id="aM9ryv3xv72pqoxQDRHE-8" value="return" style="html=1;verticalAlign=bottom;endArrow=open;dashed=1;endSize=8;edgeStyle=elbowEdgeStyle;elbow=vertical;curved=0;rounded=0;" parent="1" source="aM9ryv3xv72pqoxQDRHE-6" target="aM9ryv3xv72pqoxQDRHE-2" edge="1">
          <mxGeometry relative="1" as="geometry">
            <mxPoint x="195" y="205" as="targetPoint" />
            <Array as="points">
              <mxPoint x="190" y="280" />
            </Array>
          </mxGeometry>
        </mxCell>
        <mxCell id="aM9ryv3xv72pqoxQDRHE-9" value="callback" style="html=1;verticalAlign=bottom;endArrow=block;edgeStyle=elbowEdgeStyle;elbow=vertical;curved=0;rounded=0;" parent="1" source="aM9ryv3xv72pqoxQDRHE-6" target="aM9ryv3xv72pqoxQDRHE-4" edge="1">
          <mxGeometry relative="1" as="geometry">
            <mxPoint x="175" y="160" as="sourcePoint" />
            <Array as="points">
              <mxPoint x="190" y="160" />
            </Array>
          </mxGeometry>
        </mxCell>
        <mxCell id="aM9ryv3xv72pqoxQDRHE-10" value="return" style="html=1;verticalAlign=bottom;endArrow=open;dashed=1;endSize=8;edgeStyle=elbowEdgeStyle;elbow=vertical;curved=0;rounded=0;" parent="1" source="aM9ryv3xv72pqoxQDRHE-4" target="aM9ryv3xv72pqoxQDRHE-6" edge="1">
          <mxGeometry relative="1" as="geometry">
            <mxPoint x="175" y="235" as="targetPoint" />
            <Array as="points">
              <mxPoint x="180" y="230" />
            </Array>
          </mxGeometry>
        </mxCell>
        <mxCell id="0FKoGiFX31I3kZRtYl2l-1" value="Database" style="rounded=0;whiteSpace=wrap;html=1;" parent="1" vertex="1">
          <mxGeometry x="-10" y="440" width="105" height="40" as="geometry" />
        </mxCell>
        <mxCell id="0FKoGiFX31I3kZRtYl2l-2" value="Clineca-starter" style="rounded=0;whiteSpace=wrap;html=1;" parent="1" vertex="1">
          <mxGeometry x="200" y="440" width="105" height="40" as="geometry" />
        </mxCell>
        <mxCell id="0FKoGiFX31I3kZRtYl2l-3" value="" style="endArrow=none;dashed=1;html=1;rounded=0;entryX=0.5;entryY=1;entryDx=0;entryDy=0;" parent="1" target="0FKoGiFX31I3kZRtYl2l-2" edge="1">
          <mxGeometry width="50" height="50" relative="1" as="geometry">
            <mxPoint x="252" y="760" as="sourcePoint" />
            <mxPoint x="280" y="525" as="targetPoint" />
          </mxGeometry>
        </mxCell>
        <mxCell id="0FKoGiFX31I3kZRtYl2l-4" value="" style="endArrow=none;dashed=1;html=1;rounded=0;entryX=0.5;entryY=1;entryDx=0;entryDy=0;" parent="1" edge="1">
          <mxGeometry width="50" height="50" relative="1" as="geometry">
            <mxPoint x="40" y="760" as="sourcePoint" />
            <mxPoint x="43.539999999999964" y="480" as="targetPoint" />
          </mxGeometry>
        </mxCell>
        <mxCell id="0FKoGiFX31I3kZRtYl2l-5" value="" style="rounded=0;whiteSpace=wrap;html=1;" parent="1" vertex="1">
          <mxGeometry x="37.5" y="520" width="10" height="50" as="geometry" />
        </mxCell>
        <mxCell id="0FKoGiFX31I3kZRtYl2l-10" value="" style="rounded=0;whiteSpace=wrap;html=1;" parent="1" vertex="1">
          <mxGeometry x="247.5" y="520" width="10" height="170" as="geometry" />
        </mxCell>
        <mxCell id="0FKoGiFX31I3kZRtYl2l-11" value="API 1" style="rounded=0;whiteSpace=wrap;html=1;" parent="1" vertex="1">
          <mxGeometry x="420" y="440" width="105" height="40" as="geometry" />
        </mxCell>
        <mxCell id="0FKoGiFX31I3kZRtYl2l-12" value="API 2" style="rounded=0;whiteSpace=wrap;html=1;" parent="1" vertex="1">
          <mxGeometry x="550" y="440" width="105" height="40" as="geometry" />
        </mxCell>
        <mxCell id="0FKoGiFX31I3kZRtYl2l-13" value="API 3" style="rounded=0;whiteSpace=wrap;html=1;" parent="1" vertex="1">
          <mxGeometry x="680" y="440" width="105" height="40" as="geometry" />
        </mxCell>
        <mxCell id="0FKoGiFX31I3kZRtYl2l-15" value="Agents" style="html=1;verticalAlign=bottom;startArrow=oval;endArrow=block;startSize=8;edgeStyle=elbowEdgeStyle;elbow=vertical;curved=0;rounded=0;dashed=1;entryX=-0.029;entryY=0.282;entryDx=0;entryDy=0;entryPerimeter=0;" parent="1" target="0FKoGiFX31I3kZRtYl2l-10" edge="1">
          <mxGeometry x="-0.0317" y="-1" relative="1" as="geometry">
            <mxPoint x="50" y="569" as="sourcePoint" />
            <mxPoint x="240" y="569" as="targetPoint" />
            <mxPoint as="offset" />
          </mxGeometry>
        </mxCell>
        <mxCell id="0FKoGiFX31I3kZRtYl2l-17" value="" style="endArrow=none;dashed=1;html=1;rounded=0;entryX=0.5;entryY=1;entryDx=0;entryDy=0;" parent="1" source="0FKoGiFX31I3kZRtYl2l-20" edge="1">
          <mxGeometry width="50" height="50" relative="1" as="geometry">
            <mxPoint x="471.46000000000004" y="750" as="sourcePoint" />
            <mxPoint x="473.53999999999996" y="480" as="targetPoint" />
          </mxGeometry>
        </mxCell>
        <mxCell id="0FKoGiFX31I3kZRtYl2l-18" value="" style="endArrow=none;dashed=1;html=1;rounded=0;entryX=0.5;entryY=1;entryDx=0;entryDy=0;" parent="1" edge="1">
          <mxGeometry width="50" height="50" relative="1" as="geometry">
            <mxPoint x="603" y="760" as="sourcePoint" />
            <mxPoint x="603.54" y="480" as="targetPoint" />
          </mxGeometry>
        </mxCell>
        <mxCell id="0FKoGiFX31I3kZRtYl2l-19" value="" style="endArrow=none;dashed=1;html=1;rounded=0;entryX=0.5;entryY=1;entryDx=0;entryDy=0;" parent="1" edge="1">
          <mxGeometry width="50" height="50" relative="1" as="geometry">
            <mxPoint x="734" y="760" as="sourcePoint" />
            <mxPoint x="733.54" y="480" as="targetPoint" />
          </mxGeometry>
        </mxCell>
        <mxCell id="0FKoGiFX31I3kZRtYl2l-21" value="" style="endArrow=none;dashed=1;html=1;rounded=0;entryX=0.5;entryY=1;entryDx=0;entryDy=0;" parent="1" target="0FKoGiFX31I3kZRtYl2l-20" edge="1">
          <mxGeometry width="50" height="50" relative="1" as="geometry">
            <mxPoint x="473" y="760" as="sourcePoint" />
            <mxPoint x="473.53999999999996" y="480" as="targetPoint" />
          </mxGeometry>
        </mxCell>
        <mxCell id="0FKoGiFX31I3kZRtYl2l-20" value="" style="rounded=0;whiteSpace=wrap;html=1;" parent="1" vertex="1">
          <mxGeometry x="467.5" y="580" width="10" height="70" as="geometry" />
        </mxCell>
        <mxCell id="0FKoGiFX31I3kZRtYl2l-22" value="Agents request" style="html=1;verticalAlign=bottom;startArrow=oval;endArrow=block;startSize=8;edgeStyle=elbowEdgeStyle;elbow=vertical;curved=0;rounded=0;exitX=0;exitY=0;exitDx=0;exitDy=0;" parent="1" source="0FKoGiFX31I3kZRtYl2l-10" edge="1">
          <mxGeometry x="0.0054" y="1" relative="1" as="geometry">
            <mxPoint x="140" y="520" as="sourcePoint" />
            <mxPoint x="50" y="520" as="targetPoint" />
            <mxPoint as="offset" />
          </mxGeometry>
        </mxCell>
        <mxCell id="0FKoGiFX31I3kZRtYl2l-23" value="" style="rounded=0;whiteSpace=wrap;html=1;" parent="1" vertex="1">
          <mxGeometry x="597.5" y="600" width="10" height="70" as="geometry" />
        </mxCell>
        <mxCell id="0FKoGiFX31I3kZRtYl2l-25" value="" style="rounded=0;whiteSpace=wrap;html=1;" parent="1" vertex="1">
          <mxGeometry x="727.5" y="620" width="10" height="70" as="geometry" />
        </mxCell>
        <mxCell id="0FKoGiFX31I3kZRtYl2l-27" value="GetWhatsappSession" style="html=1;verticalAlign=bottom;startArrow=oval;endArrow=block;startSize=8;edgeStyle=elbowEdgeStyle;elbow=vertical;curved=0;rounded=0;exitX=1.143;exitY=0.32;exitDx=0;exitDy=0;exitPerimeter=0;" parent="1" source="0FKoGiFX31I3kZRtYl2l-10" edge="1">
          <mxGeometry x="0.0054" y="1" relative="1" as="geometry">
            <mxPoint x="369" y="620" as="sourcePoint" />
            <mxPoint x="470" y="578" as="targetPoint" />
            <mxPoint as="offset" />
            <Array as="points">
              <mxPoint x="320" y="578" />
            </Array>
          </mxGeometry>
        </mxCell>
        <mxCell id="0FKoGiFX31I3kZRtYl2l-29" value="GetWhatsappSession" style="html=1;verticalAlign=bottom;startArrow=oval;endArrow=block;startSize=8;edgeStyle=elbowEdgeStyle;elbow=vertical;curved=0;rounded=0;entryX=0;entryY=0;entryDx=0;entryDy=0;" parent="1" target="0FKoGiFX31I3kZRtYl2l-23" edge="1">
          <mxGeometry x="-0.1618" relative="1" as="geometry">
            <mxPoint x="260" y="600" as="sourcePoint" />
            <mxPoint x="471.5" y="602" as="targetPoint" />
            <mxPoint as="offset" />
            <Array as="points">
              <mxPoint x="318.5" y="600" />
            </Array>
          </mxGeometry>
        </mxCell>
        <mxCell id="0FKoGiFX31I3kZRtYl2l-30" value="GetWhatsappSession" style="html=1;verticalAlign=bottom;startArrow=oval;endArrow=block;startSize=8;edgeStyle=elbowEdgeStyle;elbow=vertical;curved=0;rounded=0;" parent="1" edge="1">
          <mxGeometry x="0.1958" relative="1" as="geometry">
            <mxPoint x="260" y="620" as="sourcePoint" />
            <mxPoint x="730" y="620" as="targetPoint" />
            <mxPoint as="offset" />
            <Array as="points">
              <mxPoint x="318.5" y="620" />
            </Array>
          </mxGeometry>
        </mxCell>
        <mxCell id="0FKoGiFX31I3kZRtYl2l-32" value="Session" style="html=1;verticalAlign=bottom;startArrow=oval;endArrow=block;startSize=8;edgeStyle=elbowEdgeStyle;elbow=vertical;curved=0;rounded=0;dashed=1;exitX=0;exitY=0.5;exitDx=0;exitDy=0;" parent="1" edge="1">
          <mxGeometry x="-0.0317" y="-1" relative="1" as="geometry">
            <mxPoint x="467.5" y="649.83" as="sourcePoint" />
            <mxPoint x="257.5" y="649.83" as="targetPoint" />
            <mxPoint as="offset" />
          </mxGeometry>
        </mxCell>
        <mxCell id="0FKoGiFX31I3kZRtYl2l-33" value="Session" style="html=1;verticalAlign=bottom;startArrow=oval;endArrow=block;startSize=8;edgeStyle=elbowEdgeStyle;elbow=vertical;curved=0;rounded=0;dashed=1;exitX=0.093;exitY=0.704;exitDx=0;exitDy=0;exitPerimeter=0;entryX=1.321;entryY=0.836;entryDx=0;entryDy=0;entryPerimeter=0;" parent="1" edge="1">
          <mxGeometry x="-0.0317" y="-1" relative="1" as="geometry">
            <mxPoint x="593.7199999999998" y="670.4000000000001" as="sourcePoint" />
            <mxPoint x="255.9999999999998" y="670.48" as="targetPoint" />
            <mxPoint as="offset" />
          </mxGeometry>
        </mxCell>
        <mxCell id="0FKoGiFX31I3kZRtYl2l-34" value="Session" style="html=1;verticalAlign=bottom;startArrow=oval;endArrow=block;startSize=8;edgeStyle=elbowEdgeStyle;elbow=vertical;curved=0;rounded=0;dashed=1;" parent="1" edge="1">
          <mxGeometry x="-0.0317" y="-1" relative="1" as="geometry">
            <mxPoint x="730" y="690" as="sourcePoint" />
            <mxPoint x="257.5" y="690.14" as="targetPoint" />
            <mxPoint as="offset" />
          </mxGeometry>
        </mxCell>
      </root>
    </mxGraphModel>
  </diagram>
</mxfile>
